# xmcd CD database file
#
# Track frame offsets:
#	150
#	8962
#	28246
#	53368
#	69008
#	86523
#	106109
#	133525
#	153188
#	159173
#	160775
#
# Disc length: 2197 seconds
#
# Revision: 0
# Processed by: cddbd v1.5.2PL0 Copyright (c) Steve Scherf et al.
# Submitted via: CDex 1.70beta2
#
DISCID=6e08930b
DTITLE=Layla Zoe - Live at Errington Hall
DYEAR=2008
DGENRE=Blues
TTITLE0=Black Eyes Blacker
TTITLE1=Killing Me Softly
TTITLE2=Remption Song/Stir It Up
TTITLE3=You Won't Call
TTITLE4=Everytime Love Walks Away
TTITLE5=Born Under A Bad Sign
TTITLE6=I Am Free
TTITLE7=Someday
TTITLE8=Chicago
TTITLE9=Ocean on Stilts
TTITLE10=Pleuke
EXTD=YEAR: 2008
EXTT0=
EXTT1=
EXTT2=
EXTT3=
EXTT4=
EXTT5=
EXTT6=
EXTT7=
EXTT8=
EXTT9=
EXTT10=
PLAYORDER=
